<svg width="150" height="150" viewBox="0 0 150 150" fill="none" xmlns="http://www.w3.org/2000/svg">
<rect width="150" height="150" rx="75" fill="#210F05"/>
<path d="M54.6924 80.1629C52.0768 81.4913 49.669 82.9473 47.3089 84.7017C41.7568 88.8289 36.3753 93.4192 31.917 98.7285C30.0399 100.964 28.0568 103.725 26.6219 106.28C25.6647 107.984 23.4589 111.668 24.1224 113.896C24.6481 115.661 28.08 114.585 29.0228 114.356C33.1134 113.364 37.0657 111.712 40.9861 110.219C50.231 106.699 59.7689 103.538 68.4892 98.8106C80.8504 92.1099 91.9282 82.5227 100.095 71.0688C105.091 64.0629 109.021 55.9188 110.052 47.3077C110.664 42.1999 110.33 35.5712 106.081 31.9429C99.5534 26.3685 91.4899 34.1214 87.0631 38.5091C79.5736 45.9324 73.2442 54.6258 69.3114 64.4534C65.1541 74.8421 63.0423 87.264 65.6279 98.3182C67.1239 104.714 70.789 111.074 75.7494 115.415C80.9032 119.924 87.5049 120.872 94.0273 119.28C101.996 117.336 109.49 113.366 117 110.154" stroke="white" stroke-width="7" stroke-linecap="round"/>
</svg>
