<svg width="20" height="13" viewBox="0 0 20 13" fill="none" xmlns="http://www.w3.org/2000/svg">
<path d="M3.30797 0.837363C2.66586 0.114993 1.55973 0.0499271 0.837363 0.692034C0.114993 1.33414 0.0499271 2.44027 0.692034 3.16264L3.30797 0.837363ZM10 11L8.69203 12.1626C9.02413 12.5362 9.50013 12.75 10 12.75C10.4999 12.75 10.9759 12.5362 11.308 12.1626L10 11ZM19.308 3.16264C19.9501 2.44027 19.885 1.33414 19.1626 0.692034C18.4403 0.0499271 17.3341 0.114993 16.692 0.837363L19.308 3.16264ZM0.692034 3.16264L8.69203 12.1626L11.308 9.83736L3.30797 0.837363L0.692034 3.16264ZM11.308 12.1626L19.308 3.16264L16.692 0.837363L8.69203 9.83736L11.308 12.1626Z" fill="#361A0B"/>
</svg>
