<svg width="26" height="25" viewBox="0 0 26 25" fill="none" xmlns="http://www.w3.org/2000/svg">
<path fill-rule="evenodd" clip-rule="evenodd" d="M12.917 0C19.917 0 25.417 5.5 25.417 12.5C25.417 19.5 19.917 25 12.917 25C5.91699 25 0.416992 19.5 0.416992 12.5C0.416992 5.5 5.91699 0 12.917 0ZM19.917 17.75H5.91699C5.66692 17.75 5.41704 17.4999 5.41704 17.25V7.75004C5.41704 7.49997 5.66711 7.25009 5.91699 7.25009H19.917C20.1671 7.25009 20.4169 7.50016 20.4169 7.75004V17.25C20.4169 17.5001 20.1669 17.75 19.917 17.75ZM7.16699 8.25L12.167 12.75C12.6669 13.0001 13.1669 13.0001 13.6671 12.75L18.6671 8.25H7.16699ZM6.41695 16.25L10.417 12.5L6.41695 8.75V16.25ZM11.1669 13L7.16686 16.75H18.6669L14.6668 13L14.1668 13.4999C13.9167 13.75 13.4168 13.9999 12.9168 13.9999C12.4169 13.9999 11.9169 13.7498 11.6668 13.4999L11.1669 13ZM15.4169 12.5L19.417 16.25V8.75L15.4169 12.5Z" fill="white"/>
</svg>
