<svg width="25" height="25" viewBox="0 0 25 25" fill="none" xmlns="http://www.w3.org/2000/svg">
<circle cx="12.5" cy="12.5" r="12.5" fill="#210F05"/>
<path d="M13.0596 6V16" stroke="#FFFCFA" stroke-linecap="round" stroke-linejoin="round"/>
<path d="M13.0596 16V18.5C13.0596 18.9945 12.913 19.4778 12.6383 19.8889C12.3636 20.3001 11.9731 20.6205 11.5163 20.8097C11.0595 20.9989 10.5568 21.0484 10.0719 20.952C9.5869 20.8555 9.14144 20.6174 8.79181 20.2678C8.44217 19.9181 8.20407 19.4727 8.10761 18.9877C8.01114 18.5028 8.06065 18.0001 8.24987 17.5433C8.43909 17.0865 8.75953 16.696 9.17065 16.4213C9.58178 16.1466 10.0651 16 10.5596 16H13.0596Z" stroke="#FFFCFA" stroke-linecap="round" stroke-linejoin="round"/>
<path d="M13.06 15.9999H10.5739C9.90983 15.9995 9.27293 15.7363 8.80222 15.268C8.33152 14.7996 8.06525 14.164 8.06156 13.5C8.05787 12.8359 8.31706 12.1974 8.78253 11.7238C9.24801 11.2502 9.88195 10.9801 10.5459 10.9723L13.06 10.9443" stroke="#FFFCFA" stroke-linecap="round" stroke-linejoin="round"/>
<path d="M15.5598 15.9999L15.5574 15.4999L15.557 15.4999L15.5598 15.9999ZM18.0598 13.4862L17.5598 13.4862L17.5598 13.4866L18.0598 13.4862ZM15.557 15.4999C15.1583 15.5021 14.7679 15.3859 14.4352 15.1659L13.8837 16C14.3814 16.3292 14.9657 16.5032 15.5625 16.4999L15.557 15.4999ZM14.4352 15.1659C14.1026 14.946 13.8428 14.6322 13.6887 14.2645L12.7664 14.6509C12.997 15.2013 13.3859 15.6709 13.8837 16L14.4352 15.1659ZM13.6887 14.2645C13.5346 13.8967 13.4931 13.4914 13.5696 13.1001L12.5881 12.9083C12.4737 13.494 12.5358 14.1005 12.7664 14.6509L13.6887 14.2645ZM13.5696 13.1001C13.646 12.7087 13.837 12.3489 14.1182 12.0661L13.4091 11.361C12.9883 11.7841 12.7026 12.3226 12.5881 12.9083L13.5696 13.1001ZM14.1182 12.0661C14.3993 11.7834 14.7581 11.5905 15.1491 11.5119L14.952 10.5315C14.3669 10.6492 13.8299 10.9378 13.4091 11.361L14.1182 12.0661ZM15.1491 11.5119C15.54 11.4333 15.9455 11.4726 16.3141 11.6246L16.6955 10.7002C16.1439 10.4726 15.537 10.4139 14.952 10.5315L15.1491 11.5119ZM16.3141 11.6246C16.6827 11.7767 16.9979 12.0348 17.2196 12.3662L18.0507 11.8101C17.7188 11.3141 17.2472 10.9279 16.6955 10.7002L16.3141 11.6246ZM17.2196 12.3662C17.4414 12.6977 17.5598 13.0874 17.5598 13.4862L18.5598 13.4862C18.5598 12.8894 18.3826 12.3061 18.0507 11.8101L17.2196 12.3662ZM17.5598 13.4866C17.5602 14.0188 17.3497 14.5294 16.9744 14.9068L17.6834 15.6119C18.2453 15.047 18.5604 14.2825 18.5598 13.4858L17.5598 13.4866ZM16.9744 14.9068C16.5991 15.2841 16.0896 15.4974 15.5574 15.4999L15.5621 16.4999C16.3588 16.4961 17.1216 16.1769 17.6834 15.6119L16.9744 14.9068Z" fill="#FFFCFA"/>
<path d="M10.4977 6H15.6354C16.2918 5.99985 16.9215 6.26005 17.3864 6.72352C17.8513 7.18699 18.1133 7.81591 18.1151 8.47234C18.1169 9.12878 17.8583 9.75913 17.396 10.2252C16.9337 10.6912 16.3055 10.9549 15.6491 10.9583L10.5114 10.9865C10.183 10.9889 9.85741 10.9264 9.55328 10.8026C9.24914 10.6788 8.97245 10.4962 8.7391 10.2651C8.50575 10.0341 8.32034 9.75925 8.1935 9.45636C8.06667 9.15348 8.00091 8.82852 8.00001 8.50015C7.99911 8.17178 8.06308 7.84647 8.18825 7.54289C8.31342 7.23932 8.49732 6.96346 8.7294 6.73115C8.96147 6.49884 9.23715 6.31466 9.5406 6.18919C9.84406 6.06372 10.1693 5.99943 10.4977 6H10.4977Z" stroke="#FFFCFA" stroke-linecap="round" stroke-linejoin="round"/>
</svg>
