<svg width="1988" height="814" viewBox="0 0 1988 814" fill="none" xmlns="http://www.w3.org/2000/svg">
<path d="M27.529 113.749C85.9952 33.0074 327.261 -15.5116 366.855 56.7113C406.449 128.934 435.312 410.048 366.855 467.086C298.397 524.123 78.2243 501.16 38.6301 437.085C-0.964043 373.011 -18.726 157.453 27.529 113.749Z" fill="#EBD9D0"/>
<path d="M1071.98 734.202C996.598 805.362 872.669 810.625 839.197 749.628C805.726 688.63 801.446 514.671 859.317 466.498C917.188 418.326 1038.51 412.382 1071.98 466.498C1105.45 520.614 1111.08 697.291 1071.98 734.202Z" fill="#EBD9D0"/>
<path d="M1947.98 439.072C1839.85 541.146 1662.09 548.696 1614.08 461.199C1566.07 373.702 1559.93 124.169 1642.94 55.0684C1725.94 -14.0317 1899.97 -22.5571 1947.98 55.0684C1995.99 132.694 2004.06 386.125 1947.98 439.072Z" fill="#EBD9D0"/>
<path d="M1069.32 721.63C1077.04 721.63 1098.07 760.231 1098.07 767.242C1098.07 774.254 1074.93 812.855 1069.32 812.855C1063.71 812.855 1042.68 774.254 1042.68 767.242C1042.68 760.231 1061.61 721.63 1069.32 721.63Z" fill="#B98675"/>
<path d="M1516.04 142.841C1523.75 142.841 1544.79 181.442 1544.79 188.454C1544.79 195.465 1521.65 234.067 1516.04 234.067C1510.43 234.067 1489.39 195.465 1489.39 188.454C1489.39 181.442 1508.33 142.841 1516.04 142.841Z" fill="#B98675"/>
<path d="M365.038 22.841C372.751 22.841 393.786 61.4424 393.786 68.4539C393.786 75.4653 370.648 114.067 365.038 114.067C359.429 114.067 338.395 75.4653 338.395 68.4539C338.395 61.4424 357.325 22.841 365.038 22.841Z" fill="#B98675"/>
</svg>
