<svg width="1988" height="936" viewBox="0 0 1988 936" fill="none" xmlns="http://www.w3.org/2000/svg">
<path d="M27.529 113.749C85.9952 33.0074 327.261 -15.5116 366.855 56.7113C406.449 128.934 435.312 410.048 366.855 467.086C298.397 524.123 78.2243 501.16 38.6301 437.085C-0.964046 373.011 -18.726 157.453 27.529 113.749Z" fill="#EBD9D0"/>
<path d="M1071.98 856.095C996.598 927.255 872.669 932.518 839.197 871.52C805.726 810.523 801.446 636.563 859.317 588.39C917.188 540.218 1038.51 534.275 1071.98 588.39C1105.45 642.506 1111.08 819.183 1071.98 856.095Z" fill="#EBD9D0"/>
<path d="M1947.98 439.072C1839.85 541.146 1662.09 548.696 1614.08 461.199C1566.07 373.702 1559.93 124.168 1642.94 55.0682C1725.94 -14.0319 1899.97 -22.5574 1947.98 55.0682C1995.99 132.694 2004.06 386.125 1947.98 439.072Z" fill="#EBD9D0"/>
<path d="M1069.32 843.522C1077.04 843.522 1098.07 882.124 1098.07 889.135C1098.07 896.146 1074.93 934.748 1069.32 934.748C1063.71 934.748 1042.68 896.146 1042.68 889.135C1042.68 882.124 1061.61 843.522 1069.32 843.522Z" fill="#B98675"/>
<path d="M1516.04 142.841C1523.75 142.841 1544.79 181.442 1544.79 188.454C1544.79 195.465 1521.65 234.067 1516.04 234.067C1510.43 234.067 1489.39 195.465 1489.39 188.454C1489.39 181.442 1508.33 142.841 1516.04 142.841Z" fill="#B98675"/>
<path d="M365.038 22.8407C372.751 22.8407 393.786 61.4422 393.786 68.4536C393.786 75.4651 370.647 114.067 365.038 114.067C359.429 114.067 338.395 75.4651 338.395 68.4536C338.395 61.4422 357.325 22.8407 365.038 22.8407Z" fill="#B98675"/>
</svg>
