<svg width="629" height="407" viewBox="0 0 629 407" fill="none" xmlns="http://www.w3.org/2000/svg">
<path d="M153.866 324.406C155.588 312.808 156.043 301.056 155.223 289.359L153.866 270C161.342 284.875 159.653 304.452 153.866 324.406V324.406Z" fill="#F1DBBF"/>
<path d="M148.072 327.349C148.901 320.428 149.12 313.447 148.725 306.487L148.072 294.964C151.669 303.818 150.856 315.472 148.072 327.349Z" fill="#F1DBBF"/>
<path d="M122.159 341.6V348.077C122.162 348.592 122.368 349.084 122.731 349.448C123.095 349.812 123.588 350.017 124.103 350.02H127.341C127.426 350.02 127.511 350.036 127.59 350.069C127.668 350.101 127.74 350.149 127.8 350.209C127.86 350.269 127.908 350.341 127.94 350.42C127.973 350.498 127.989 350.583 127.989 350.668V403.779C127.992 404.293 128.197 404.786 128.561 405.15C128.925 405.514 129.418 405.719 129.932 405.722H169.445C169.96 405.722 170.454 405.517 170.819 405.152C171.183 404.788 171.388 404.294 171.388 403.779V350.668C171.389 350.496 171.457 350.332 171.579 350.21C171.7 350.089 171.865 350.021 172.036 350.02H175.923C176.438 350.02 176.932 349.815 177.296 349.451C177.661 349.086 177.866 348.592 177.866 348.077V341.6C177.866 341.345 177.816 341.092 177.719 340.856C177.621 340.62 177.478 340.406 177.298 340.225C177.117 340.045 176.903 339.902 176.667 339.804C176.431 339.707 176.178 339.657 175.923 339.657H124.103C123.588 339.659 123.094 339.864 122.73 340.228C122.366 340.592 122.161 341.085 122.159 341.6Z" fill="#FAF3EA"/>
<path d="M127.895 351.676H171.294V353.619H127.895V351.676Z" fill="#F1DBBF"/>
<path d="M127.953 380.268C142.475 386.277 157.156 386.344 172 380.268V366.579C157.71 361.78 142.243 361.78 127.953 366.579V380.268Z" fill="#F1DBBF"/>
<path d="M358.408 150.068L406.14 152.214C406.14 152.214 402.156 176.896 427.979 179.244C453.802 181.591 477.278 174.549 486.668 192.154C496.058 209.759 492.011 272.446 492.011 272.446C492.011 272.446 474.404 335.825 460.319 345.214C446.234 354.603 322.987 341.693 322.987 341.693L271.408 276.571L273.155 226.349C274.067 200.123 298.014 180.433 323.805 185.286C324.311 185.382 324.821 185.484 325.335 185.594C325.335 185.594 331.001 181.36 346.547 173.588C356.054 168.835 358.408 150.068 358.408 150.068Z" fill="#B26666"/>
<path d="M462.019 178.07C462.019 178.07 450.674 198.652 455.369 227.994C460.064 257.336 440.365 319.393 440.365 319.393L426.279 315.872C426.279 315.872 435.669 254.841 433.322 240.757C430.974 226.673 430.327 185.112 442.064 178.07C453.802 171.028 462.019 178.07 462.019 178.07Z" fill="#210F05"/>
<path d="M326.16 188.862L321.227 318.806L311.836 324.675C311.836 324.675 298.338 182.073 305.381 182.073H319.71C320.559 182.073 321.398 182.24 322.182 182.565C322.966 182.889 323.677 183.365 324.277 183.965C324.877 184.564 325.353 185.276 325.677 186.06C326.002 186.843 326.169 187.683 326.169 188.531C326.169 188.641 326.166 188.752 326.16 188.862Z" fill="#210F05"/>
<path d="M433.909 316.459C430.668 316.459 428.04 313.832 428.04 310.591C428.04 307.35 430.668 304.722 433.909 304.722C437.15 304.722 439.778 307.35 439.778 310.591C439.778 313.832 437.15 316.459 433.909 316.459Z" fill="#EED6D1"/>
<path d="M316.531 322.328C313.29 322.328 310.663 319.7 310.663 316.459C310.663 313.218 313.29 310.591 316.531 310.591C319.773 310.591 322.4 313.218 322.4 316.459C322.4 319.7 319.773 322.328 316.531 322.328Z" fill="#EED6D1"/>
<path d="M427.461 168.171C440.481 168.171 451.036 157.617 451.036 144.598C451.036 131.578 440.481 121.024 427.461 121.024C414.44 121.024 403.885 131.578 403.885 144.598C403.885 157.617 414.44 168.171 427.461 168.171Z" fill="#210F05"/>
<path d="M434.029 121.673C438.109 121.674 442.119 122.733 445.667 124.747C449.215 126.761 452.18 129.662 454.271 133.164C456.363 136.667 457.509 140.653 457.599 144.732C457.688 148.81 456.718 152.843 454.782 156.434C456.826 153.877 458.315 150.922 459.154 147.758C459.993 144.594 460.163 141.29 459.654 138.056C459.145 134.822 457.968 131.73 456.198 128.976C454.428 126.223 452.103 123.868 449.373 122.062C446.642 120.257 443.565 119.039 440.338 118.488C437.111 117.937 433.805 118.065 430.63 118.862C427.455 119.659 424.48 121.109 421.897 123.119C419.313 125.13 417.176 127.656 415.623 130.538C417.827 127.771 420.626 125.537 423.813 124.002C427 122.468 430.492 121.671 434.029 121.673Z" fill="#210F05"/>
<path d="M383.407 144.547C421.654 144.547 452.659 113.545 452.659 75.3007C452.659 37.0568 421.654 6.05396 383.407 6.05396C345.159 6.05396 314.154 37.0568 314.154 75.3007C314.154 113.545 345.159 144.547 383.407 144.547Z" fill="#210F05"/>
<path d="M329.055 32.3363C340.987 18.9173 357.667 10.6591 375.574 9.30442C393.481 7.94975 411.214 13.6047 425.03 25.0756C424.464 24.5374 423.903 23.9947 423.315 23.4717C409.587 11.279 391.578 5.03695 373.248 6.11806C354.918 7.19918 337.767 15.5149 325.568 29.2369C313.368 42.9588 307.118 60.9636 308.191 79.2925C309.265 97.6213 317.574 114.774 331.292 126.978C331.88 127.501 332.485 127.994 333.085 128.493C320.074 116.117 312.381 99.1704 311.629 81.2296C310.876 63.2889 317.125 45.7578 329.055 32.3363Z" fill="#210F05"/>
<path d="M382.617 145.199C407.25 145.199 427.22 125.231 427.22 100.6C427.22 86.6399 413.542 64.1781 403.5 56.0002C395.823 49.7484 386.173 46 375.5 46C350.866 46 338.013 75.968 338.013 100.6C338.013 125.231 357.983 145.199 382.617 145.199Z" fill="#EED6D1"/>
<path d="M337.629 96.4268C339.574 96.4268 341.151 93.5367 341.151 89.9716C341.151 86.4065 339.574 83.5164 337.629 83.5164C335.685 83.5164 334.108 86.4065 334.108 89.9716C334.108 93.5367 335.685 96.4268 337.629 96.4268Z" fill="#EED6D1"/>
<path d="M428.01 96.4268C429.955 96.4268 431.531 93.5367 431.531 89.9716C431.531 86.4065 429.955 83.5164 428.01 83.5164C426.065 83.5164 424.489 86.4065 424.489 89.9716C424.489 93.5367 426.065 96.4268 428.01 96.4268Z" fill="#EED6D1"/>
<path d="M238.308 394.088V398.02C238.306 399.099 238.505 400.168 238.897 401.174C239.071 401.622 239.281 402.055 239.526 402.469C240.298 403.765 241.393 404.838 242.705 405.583C244.016 406.328 245.499 406.719 247.007 406.718H536.26C537.769 406.719 539.251 406.328 540.563 405.583C541.874 404.838 542.97 403.765 543.742 402.469C543.986 402.055 544.196 401.622 544.37 401.174C544.762 400.168 544.962 399.099 544.96 398.02V394.088C544.96 392.946 544.735 391.815 544.299 390.76C543.862 389.705 543.221 388.746 542.414 387.938C541.607 387.13 540.648 386.49 539.593 386.052C538.538 385.615 537.407 385.39 536.265 385.39H519.587V383.557C519.587 383.509 519.578 383.462 519.56 383.418C519.542 383.374 519.515 383.334 519.482 383.3C519.448 383.267 519.408 383.24 519.364 383.222C519.32 383.203 519.273 383.194 519.226 383.194H510.525C510.429 383.194 510.337 383.232 510.269 383.299C510.201 383.367 510.163 383.459 510.162 383.555V385.39H504.728V383.557C504.728 383.509 504.719 383.462 504.7 383.418C504.682 383.374 504.656 383.334 504.622 383.3C504.589 383.267 504.549 383.24 504.505 383.222C504.461 383.203 504.414 383.194 504.366 383.194H495.666C495.57 383.194 495.478 383.232 495.41 383.3C495.342 383.367 495.303 383.459 495.303 383.555V385.39H489.862V383.557C489.862 383.509 489.853 383.462 489.835 383.418C489.816 383.374 489.79 383.334 489.756 383.3C489.723 383.267 489.683 383.24 489.639 383.222C489.595 383.203 489.548 383.194 489.5 383.194H480.8C480.704 383.194 480.612 383.232 480.544 383.3C480.476 383.367 480.437 383.459 480.437 383.555V385.39H475.003V383.557C475.003 383.509 474.993 383.462 474.975 383.418C474.957 383.374 474.93 383.334 474.897 383.3C474.863 383.267 474.823 383.24 474.78 383.222C474.736 383.203 474.689 383.194 474.641 383.194H465.941C465.844 383.194 465.752 383.232 465.684 383.3C465.616 383.367 465.578 383.459 465.578 383.555V385.39H460.143V383.557C460.143 383.509 460.134 383.462 460.116 383.418C460.098 383.374 460.071 383.334 460.037 383.3C460.004 383.267 459.964 383.24 459.92 383.222C459.876 383.203 459.829 383.194 459.782 383.194H451.081C450.985 383.194 450.893 383.232 450.825 383.3C450.757 383.367 450.719 383.459 450.718 383.555V385.39H445.277V383.557C445.277 383.509 445.268 383.462 445.25 383.418C445.232 383.374 445.205 383.334 445.172 383.3C445.138 383.267 445.098 383.24 445.054 383.222C445.01 383.203 444.963 383.194 444.916 383.194H436.215C436.119 383.194 436.027 383.232 435.959 383.3C435.891 383.367 435.853 383.459 435.852 383.555V385.39H430.418V383.557C430.418 383.509 430.409 383.462 430.391 383.418C430.372 383.374 430.346 383.334 430.312 383.3C430.279 383.267 430.239 383.24 430.195 383.222C430.151 383.203 430.104 383.194 430.056 383.194H361.912C361.864 383.194 361.817 383.203 361.773 383.221C361.729 383.239 361.689 383.266 361.655 383.3C361.622 383.333 361.595 383.373 361.577 383.417C361.558 383.461 361.549 383.508 361.549 383.555V385.39H356.108V383.557C356.108 383.509 356.099 383.462 356.08 383.418C356.062 383.374 356.036 383.334 356.002 383.3C355.969 383.267 355.929 383.24 355.885 383.222C355.841 383.203 355.794 383.194 355.746 383.194H347.046C346.95 383.195 346.858 383.233 346.79 383.301C346.722 383.369 346.684 383.461 346.683 383.557V385.39H341.248V383.557C341.248 383.509 341.239 383.462 341.221 383.418C341.203 383.374 341.176 383.334 341.143 383.3C341.109 383.267 341.069 383.24 341.025 383.222C340.981 383.203 340.934 383.194 340.887 383.194H332.186C332.139 383.194 332.092 383.203 332.048 383.221C332.004 383.239 331.964 383.266 331.93 383.3C331.896 383.333 331.87 383.373 331.851 383.417C331.833 383.461 331.824 383.508 331.824 383.555V385.39H326.389V383.557C326.389 383.509 326.38 383.462 326.362 383.418C326.344 383.374 326.317 383.334 326.283 383.3C326.25 383.267 326.21 383.24 326.166 383.222C326.122 383.203 326.075 383.194 326.027 383.194H317.327C317.279 383.194 317.232 383.203 317.188 383.221C317.144 383.239 317.104 383.266 317.071 383.3C317.037 383.333 317.01 383.373 316.992 383.417C316.974 383.461 316.964 383.508 316.964 383.555V385.39H311.523V383.557C311.523 383.509 311.514 383.462 311.496 383.418C311.478 383.374 311.451 383.334 311.417 383.3C311.384 383.267 311.344 383.24 311.3 383.222C311.256 383.203 311.209 383.194 311.162 383.194H302.461C302.366 383.195 302.275 383.234 302.208 383.302C302.141 383.37 302.104 383.461 302.105 383.557V385.39H296.664V383.557C296.664 383.509 296.655 383.462 296.636 383.418C296.618 383.374 296.592 383.334 296.558 383.3C296.524 383.267 296.485 383.24 296.441 383.222C296.397 383.203 296.35 383.194 296.302 383.194H287.602C287.554 383.194 287.507 383.203 287.463 383.221C287.419 383.239 287.379 383.266 287.345 383.3C287.312 383.333 287.285 383.373 287.267 383.417C287.248 383.461 287.239 383.508 287.239 383.555V385.39H281.804V383.557C281.804 383.509 281.795 383.462 281.777 383.418C281.759 383.374 281.732 383.334 281.699 383.3C281.665 383.267 281.625 383.24 281.581 383.222C281.537 383.203 281.49 383.194 281.443 383.194H272.742C272.695 383.194 272.648 383.203 272.604 383.221C272.56 383.239 272.52 383.266 272.486 383.3C272.452 383.333 272.426 383.373 272.407 383.417C272.389 383.461 272.38 383.508 272.38 383.555V385.39H247.007C244.701 385.389 242.488 386.305 240.857 387.935C239.225 389.565 238.308 391.777 238.308 394.083L238.308 394.088Z" fill="#210F05"/>
<path d="M0 405.705H629V407H0V405.705Z" fill="#3F3D56"/>
<path d="M261.599 228.515H526.558C527.515 228.515 528.464 228.704 529.349 229.07C530.233 229.436 531.037 229.974 531.714 230.651C532.392 231.328 532.929 232.132 533.295 233.016C533.662 233.901 533.85 234.849 533.85 235.807V383.424C533.85 385.358 533.082 387.213 531.714 388.581C530.347 389.948 528.492 390.717 526.558 390.717H261.599C259.665 390.717 257.81 389.948 256.442 388.581C255.075 387.213 254.306 385.358 254.306 383.424V235.807C254.306 233.873 255.075 232.018 256.442 230.651C257.81 229.283 259.665 228.515 261.599 228.515Z" fill="#210F05"/>
<path d="M393.866 296.244C384.923 296.244 377.673 288.994 377.673 280.052C377.673 271.109 384.923 263.859 393.866 263.859C402.81 263.859 410.06 271.109 410.06 280.052C410.06 288.994 402.81 296.244 393.866 296.244Z" fill="#EED6D1"/>
<path d="M408 70.0576C396.3 47.0576 375 53.4999 372 61.5575V47.0576C372 37.5576 380.622 30.9998 397 31C411.5 31.0001 438 75.0001 438 97C438 113.881 423.333 130.724 420 139.558C420 135.724 431.1 117.258 423.5 110.058C414 101.058 421.019 95.6507 408 70.0576Z" fill="#351808"/>
<path d="M350.132 70.0013C354.301 56.5 364 54.5 372 61V46.5001C372 38.9001 364.5 35.9999 357.5 36C341.122 36.0003 328.973 67.5013 322.632 93.5013C318.632 109.901 334.799 130.668 338.132 139.501C338.132 135.668 327.032 117.201 334.632 110.001C344.132 101.001 341.66 97.4371 350.132 70.0013Z" fill="#351808"/>
</svg>
