<svg width="150" height="150" viewBox="0 0 150 150" fill="none" xmlns="http://www.w3.org/2000/svg">
<path d="M0 75C0 33.5786 33.5786 0 75 0V0C116.421 0 150 33.5786 150 75V75C150 116.421 116.421 150 75 150V150C33.5786 150 0 116.421 0 75V75Z" fill="#B98675"/>
<path fill-rule="evenodd" clip-rule="evenodd" d="M100.955 26.5002C103.545 26.4832 106.087 27.3453 108.354 29.2814C111.273 31.774 112.692 35.1677 113.324 38.3981C113.956 41.6266 113.859 44.954 113.527 47.7239C112.405 57.0987 108.156 65.7919 102.945 73.1008C94.5044 84.9384 83.1005 94.8269 70.3866 101.763C72.0856 105.971 74.7673 109.905 78.0542 112.781C82.1669 116.379 87.5225 117.265 93.1974 115.88C98.7949 114.514 104.044 112.134 109.572 109.627C111.544 108.732 113.552 107.822 115.623 106.936C117.401 106.175 119.458 107 120.218 108.777C120.978 110.554 120.154 112.611 118.377 113.371C116.621 114.123 114.811 114.944 112.955 115.786C107.265 118.369 101.149 121.145 94.8571 122.681C87.4873 124.479 79.6395 123.469 73.4446 118.049C69.4258 114.532 66.2044 109.878 64.1066 104.894C58.6877 107.375 53.0937 109.448 47.6693 111.457C45.8328 112.138 44.0157 112.811 42.2315 113.49C41.6027 113.73 40.9605 113.978 40.3067 114.232C37.0422 115.497 33.4872 116.874 29.8479 117.757C29.8212 117.764 29.7746 117.776 29.7108 117.793C29.2549 117.915 27.9193 118.272 26.6747 118.364C25.9595 118.417 24.8936 118.424 23.8206 118.048C22.5992 117.621 21.2884 116.643 20.768 114.895C20.3841 113.606 20.474 112.345 20.6583 111.361C20.8476 110.351 21.1854 109.382 21.5332 108.546C22.141 107.086 22.9299 105.696 23.4034 104.861C23.4647 104.753 23.5208 104.654 23.5705 104.565C25.1326 101.785 27.2493 98.8446 29.2367 96.4778C33.9377 90.8795 39.5549 86.1047 45.2208 81.8928C47.7585 80.0063 50.338 78.4488 53.1075 77.0423C54.831 76.167 56.9377 76.8545 57.813 78.578C58.6883 80.3014 58.0007 82.4082 56.2773 83.2835C53.8155 84.5337 51.5795 85.8882 49.397 87.5106C43.9587 91.5532 38.813 95.9589 34.5973 100.979C32.8306 103.083 30.981 105.666 29.6734 107.994C29.6117 108.104 29.548 108.216 29.4829 108.332C29.036 109.122 28.522 110.032 28.1067 110.977C28.1387 110.969 28.1693 110.961 28.1977 110.955C31.3466 110.191 34.3898 109.014 37.6477 107.754C38.3348 107.488 39.0314 107.218 39.7406 106.948C41.6579 106.218 43.5645 105.511 45.4565 104.81C51.1413 102.702 56.6942 100.642 62.0068 98.1552C59.5452 86.4453 61.8496 73.6793 66.062 63.1531C70.21 52.7874 76.8489 43.7051 84.5992 36.0232C86.7666 33.875 90.2354 30.4649 94.1482 28.3961C96.1375 27.3443 98.4596 26.5167 100.955 26.5002ZM68.5056 94.7973C79.7413 88.3951 89.7742 79.515 97.2455 69.0368C102.025 62.3339 105.637 54.7389 106.577 46.8914C106.857 44.5536 106.899 42.0127 106.454 39.7429C106.01 37.475 105.138 35.7402 103.808 34.6045C102.811 33.7533 101.897 33.4942 101.001 33.5001C100.01 33.5066 98.8162 33.8462 97.4202 34.5843C94.5627 36.0952 91.7864 38.7554 89.527 40.9949C82.2983 48.1597 76.2784 56.4642 72.5609 65.7538C68.9266 74.8354 67.0182 85.3315 68.5056 94.7973Z" fill="white"/>
</svg>
