<svg width="158" height="158" viewBox="0 0 158 158" fill="none" xmlns="http://www.w3.org/2000/svg">
<path d="M60.2773 87.2835C62.0007 86.4082 62.6883 84.3014 61.813 82.578C60.9377 80.8545 58.831 80.167 57.1075 81.0423L60.2773 87.2835ZM51.3089 88.7017L53.397 91.5106L53.397 91.5106L51.3089 88.7017ZM35.917 102.729L33.2367 100.478L33.2367 100.478L35.917 102.729ZM30.6219 110.28L27.5705 108.565L27.5705 108.565L30.6219 110.28ZM28.1224 117.896L31.4768 116.897L31.4768 116.897L28.1224 117.896ZM33.0228 118.356L33.8479 121.757L33.8479 121.757L33.0228 118.356ZM44.9861 114.219L46.2315 117.49L46.2315 117.49L44.9861 114.219ZM72.4892 102.811L70.8212 99.7336L70.8212 99.7336L72.4892 102.811ZM104.095 75.0688L106.945 77.1008L106.945 77.1008L104.095 75.0688ZM114.052 51.3077L117.527 51.7239L117.527 51.7239L114.052 51.3077ZM110.081 35.9429L107.808 38.6045L107.808 38.6045L110.081 35.9429ZM91.0631 42.5091L93.527 44.9949L93.527 44.9949L91.0631 42.5091ZM73.3114 68.4534L70.062 67.1531L70.062 67.1531L73.3114 68.4534ZM69.6279 102.318L73.0359 101.521L73.0359 101.521L69.6279 102.318ZM79.7494 119.415L77.4446 122.049L77.4446 122.049L79.7494 119.415ZM98.0273 123.28L98.8571 126.681L98.8571 126.681L98.0273 123.28ZM122.377 117.371C124.154 116.611 124.978 114.554 124.218 112.777C123.458 111 121.401 110.175 119.623 110.936L122.377 117.371ZM79 150.5C39.5116 150.5 7.5 118.488 7.5 79H0.5C0.5 122.354 35.6456 157.5 79 157.5V150.5ZM150.5 79C150.5 118.488 118.488 150.5 79 150.5V157.5C122.354 157.5 157.5 122.354 157.5 79H150.5ZM79 7.5C118.488 7.5 150.5 39.5116 150.5 79H157.5C157.5 35.6456 122.354 0.5 79 0.5V7.5ZM79 0.5C35.6456 0.5 0.5 35.6456 0.5 79H7.5C7.5 39.5116 39.5116 7.5 79 7.5V0.5ZM57.1075 81.0423C54.338 82.4488 51.7585 84.0063 49.2208 85.8928L53.397 91.5106C55.5795 89.8882 57.8155 88.5337 60.2773 87.2835L57.1075 81.0423ZM49.2208 85.8928C43.5549 90.1047 37.9377 94.8795 33.2367 100.478L38.5973 104.979C42.813 99.9589 47.9587 95.5532 53.397 91.5106L49.2208 85.8928ZM33.2367 100.478C31.2493 102.845 29.1326 105.785 27.5705 108.565L33.6734 111.994C34.981 109.666 36.8306 107.083 38.5973 104.979L33.2367 100.478ZM27.5705 108.565C27.1373 109.336 26.2198 110.897 25.5332 112.546C25.1854 113.382 24.8476 114.351 24.6583 115.361C24.474 116.345 24.3841 117.606 24.768 118.895L31.4768 116.897C31.5289 117.072 31.466 117.038 31.5385 116.651C31.6061 116.29 31.7552 115.814 31.9955 115.237C32.4853 114.06 33.1492 112.927 33.6734 111.994L27.5705 108.565ZM24.768 118.895C25.2884 120.643 26.5992 121.621 27.8206 122.048C28.8936 122.424 29.9595 122.417 30.6747 122.364C32.0936 122.259 33.6306 121.81 33.8479 121.757L32.1977 114.955C32.0458 114.991 31.8277 115.049 31.6865 115.086C31.5153 115.13 31.3386 115.175 31.1547 115.216C30.7717 115.304 30.4296 115.363 30.1576 115.383C29.8313 115.408 29.8818 115.353 30.1339 115.442C30.2925 115.497 30.5725 115.625 30.859 115.898C31.1633 116.188 31.3715 116.544 31.4768 116.897L24.768 118.895ZM33.8479 121.757C38.216 120.698 42.4627 118.925 46.2315 117.49L43.7406 110.948C39.6686 112.499 36.0107 114.03 32.1977 114.955L33.8479 121.757ZM46.2315 117.49C54.4578 114.358 63.3969 111.349 71.6632 107.19L68.5167 100.937C60.6753 104.882 52.3223 107.681 43.7406 110.948L46.2315 117.49ZM71.6632 107.19C72.499 106.769 73.3307 106.336 74.1572 105.888L70.8212 99.7336C70.0612 100.146 69.2928 100.546 68.5167 100.937L71.6632 107.19ZM74.1572 105.888C86.9633 98.9456 98.4536 89.0095 106.945 77.1008L101.245 73.0368C93.4028 84.0358 82.7375 93.2741 70.8212 99.7336L74.1572 105.888ZM106.945 77.1008C112.156 69.7919 116.405 61.0987 117.527 51.7239L110.577 50.8914C109.637 58.7389 106.025 66.3339 101.245 73.0368L106.945 77.1008ZM117.527 51.7239C117.859 48.954 117.956 45.6266 117.324 42.3981C116.692 39.1677 115.273 35.774 112.354 33.2814L107.808 38.6045C109.138 39.7402 110.01 41.475 110.454 43.7429C110.899 46.0127 110.857 48.5536 110.577 50.8914L117.527 51.7239ZM112.354 33.2814C110.087 31.3453 107.545 30.4832 104.955 30.5002C102.46 30.5167 100.137 31.3443 98.1482 32.3961C94.2354 34.4649 90.7666 37.875 88.5992 40.0232L93.527 44.9949C95.7864 42.7554 98.5627 40.0952 101.42 38.5843C102.816 37.8462 104.01 37.5066 105.001 37.5001C105.897 37.4942 106.811 37.7533 107.808 38.6045L112.354 33.2814ZM88.5992 40.0232C80.8489 47.7051 74.21 56.7874 70.062 67.1531L76.5609 69.7538C80.2784 60.4642 86.2983 52.1597 93.527 44.9949L88.5992 40.0232ZM70.062 67.1531C65.7342 77.9677 63.4203 91.1466 66.2199 103.115L73.0359 101.521C70.6642 91.3814 72.5741 79.7165 76.5609 69.7538L70.062 67.1531ZM66.2199 103.115C66.3717 103.765 66.5433 104.412 66.7335 105.055L73.4464 103.071C73.2935 102.554 73.1566 102.037 73.0359 101.521L66.2199 103.115ZM66.7335 105.055C68.6179 111.43 72.3965 117.631 77.4446 122.049L82.0542 116.781C78.0849 113.307 74.9865 108.281 73.4464 103.071L66.7335 105.055ZM77.4446 122.049C83.6395 127.469 91.4873 128.479 98.8571 126.681L97.1974 119.88C91.5225 121.265 86.1669 120.379 82.0542 116.781L77.4446 122.049ZM98.8571 126.681C107.2 124.644 115.236 120.426 122.377 117.371L119.623 110.936C111.744 114.307 104.791 118.027 97.1974 119.88L98.8571 126.681Z" fill="#210F05"/>
</svg>
