<svg width="25" height="25" viewBox="0 0 25 25" fill="none" xmlns="http://www.w3.org/2000/svg">
<path fill-rule="evenodd" clip-rule="evenodd" d="M12.5 25C19.4036 25 25 19.4036 25 12.5C25 5.59644 19.4036 0 12.5 0C5.59644 0 0 5.59644 0 12.5C0 19.4036 5.59644 25 12.5 25ZM5.67912 10.1059H8.58206V19.4412H5.67912V10.1059ZM7.13206 5.46763C7.4648 5.46763 7.79007 5.5663 8.06673 5.75115C8.34339 5.93601 8.55902 6.19876 8.68635 6.50617C8.81369 6.81358 8.847 7.15185 8.78209 7.47819C8.71718 7.80454 8.55695 8.1043 8.32167 8.33958C8.08638 8.57487 7.78662 8.73509 7.46027 8.80001C7.13393 8.86492 6.79566 8.8316 6.48825 8.70427C6.18084 8.57694 5.9181 8.36131 5.73324 8.08465C5.54838 7.80798 5.44971 7.48272 5.44971 7.14998C5.44971 6.70379 5.62696 6.27588 5.94246 5.96038C6.25796 5.64487 6.68587 5.46763 7.13206 5.46763ZM13.1823 10.1059H10.4029V19.4412H13.2999V14.8235C13.2999 13.603 13.5529 12.4265 15.0411 12.4265C16.5293 12.4265 16.547 13.8206 16.547 14.903V19.4412H19.4587V14.3206C19.4587 11.8088 18.9205 9.87648 15.9793 9.87648C15.4285 9.8558 14.8824 9.98494 14.3991 10.2501C13.9159 10.5153 13.5136 10.9066 13.2352 11.3824H13.1823V10.1059Z" fill="#FFFCFA"/>
</svg>
