<svg width="336" height="354" viewBox="0 0 336 354" fill="none" xmlns="http://www.w3.org/2000/svg">
<path d="M327.473 335.793C303.891 358.296 265.121 359.96 254.65 340.671C244.179 321.383 242.84 266.373 260.944 251.14C279.048 235.907 317.002 234.027 327.473 251.14C337.944 268.252 339.706 324.121 327.473 335.793Z" fill="#EBD9D0"/>
<path d="M317.19 56.4771C319.189 56.4771 324.64 66.4809 324.64 68.2979C324.64 70.115 318.644 80.1188 317.19 80.1188C315.737 80.1188 310.285 70.115 310.285 68.2979C310.285 66.4809 315.191 56.4771 317.19 56.4771Z" fill="#B98675"/>
<path d="M218.19 297.477C220.189 297.477 225.64 307.481 225.64 309.298C225.64 311.115 219.644 321.119 218.19 321.119C216.737 321.119 211.285 311.115 211.285 309.298C211.285 307.481 216.191 297.477 218.19 297.477Z" fill="#B98675"/>
<path d="M105.845 113.627C77.7575 140.043 31.5825 141.997 19.1113 119.353C6.64013 96.71 5.04545 32.1335 26.6078 14.2511C48.1701 -3.63125 93.3735 -5.83754 105.845 14.2511C118.316 34.3398 120.414 99.925 105.845 113.627Z" fill="#EBD9D0"/>
<path d="M14.9531 105.585C17.405 105.585 24.0917 117.856 24.0917 120.085C24.0917 122.314 16.7362 134.585 14.9531 134.585C13.17 134.585 6.48327 122.314 6.48327 120.085C6.48327 117.856 12.5012 105.585 14.9531 105.585Z" fill="#B98675"/>
</svg>
