<svg width="1503" height="860" viewBox="0 0 1503 860" fill="none" xmlns="http://www.w3.org/2000/svg">
<path d="M27.529 113.749C85.9952 33.0075 327.261 -15.5115 366.855 56.7114C406.449 128.934 435.312 410.048 366.855 467.086C298.397 524.123 78.2243 501.16 38.6301 437.085C-0.964043 373.011 -18.726 157.453 27.529 113.749Z" fill="#EBD9D0"/>
<path d="M799.238 780.095C723.854 851.255 599.925 856.518 566.454 795.52C532.982 734.523 528.703 560.563 586.574 512.39C644.445 464.218 765.766 458.275 799.238 512.39C832.709 566.506 838.34 743.183 799.238 780.095Z" fill="#EBD9D0"/>
<path d="M1462.98 439.072C1354.85 541.146 1177.09 548.696 1129.08 461.199C1081.07 373.702 1074.93 124.169 1157.94 55.0684C1240.94 -14.0317 1414.97 -22.5571 1462.98 55.0684C1510.99 132.694 1519.06 386.125 1462.98 439.072Z" fill="#EBD9D0"/>
<path d="M796.581 767.522C804.294 767.522 825.328 806.124 825.328 813.135C825.328 820.146 802.19 858.748 796.581 858.748C790.971 858.748 769.937 820.146 769.937 813.135C769.937 806.124 788.868 767.522 796.581 767.522Z" fill="#B98675"/>
<path d="M1031.04 142.841C1038.75 142.841 1059.79 181.442 1059.79 188.454C1059.79 195.465 1036.65 234.067 1031.04 234.067C1025.43 234.067 1004.39 195.465 1004.39 188.454C1004.39 181.442 1023.33 142.841 1031.04 142.841Z" fill="#B98675"/>
<path d="M365.038 22.841C372.751 22.841 393.786 61.4424 393.786 68.4539C393.786 75.4653 370.648 114.067 365.038 114.067C359.429 114.067 338.395 75.4653 338.395 68.4539C338.395 61.4424 357.325 22.841 365.038 22.841Z" fill="#B98675"/>
</svg>
